<?xml version="1.0" encoding="UTF-8"?>
<svg width="24px" height="24px" viewBox="0 0 24 24" version="1.1" xmlns="http://www.w3.org/2000/svg">
    <path d="M19,3 C20.1045695,3 21,3.8954305 21,5 L21,19 C21,20.1045695 20.1045695,21 19,21 L5,21 C3.8954305,21 3,20.1045695 3,19 L3,5 C3,3.8954305 3.8954305,3 5,3 L19,3 Z M18.5,18.5 L18.5,13.2 C18.5,11.3 17.9,9.9 15.8,9.9 C14.8,9.9 13.9,10.6 13.6,11.3 L13.6,10.1 L11.6,10.1 L11.6,18.5 L13.7,18.5 L13.7,13.7 C13.7,12.8 13.9,12 15,12 C16.1,12 16.3,13 16.3,13.7 L16.3,18.5 L18.5,18.5 Z M6.9,8.1 C7.7,8.1 8.4,7.4 8.4,6.6 C8.4,5.8 7.7,5.1 6.9,5.1 C6.1,5.1 5.4,5.8 5.4,6.6 C5.4,7.4 6.1,8.1 6.9,8.1 Z M8,18.5 L8,10.1 L5.9,10.1 L5.9,18.5 L8,18.5 Z" fill="currentColor"/>
</svg> 