<?xml version="1.0" encoding="UTF-8"?>
<svg width="24px" height="24px" viewBox="0 0 24 24" version="1.1" xmlns="http://www.w3.org/2000/svg">
    <path d="M23,5.89 C22.26,6.21 21.46,6.42 20.64,6.53 C21.49,6.01 22.14,5.17 22.45,4.17 C21.65,4.66 20.76,5.01 19.81,5.21 C19.06,4.37 17.99,3.83 16.79,3.83 C14.47,3.83 12.59,5.71 12.59,8.03 C12.59,8.35 12.62,8.66 12.69,8.95 C9.21,8.79 6.12,7.11 4.04,4.55 C3.69,5.15 3.49,5.85 3.49,6.59 C3.49,8 4.19,9.23 5.24,9.97 C4.56,9.96 3.92,9.77 3.36,9.47 L3.36,9.51 C3.36,11.55 4.82,13.27 6.76,13.65 C6.42,13.74 6.06,13.79 5.69,13.79 C5.42,13.79 5.16,13.77 4.91,13.72 C5.43,15.41 7,16.63 8.86,16.66 C7.41,17.79 5.59,18.46 3.61,18.46 C3.28,18.46 2.95,18.44 2.63,18.41 C4.51,19.6 6.73,20.3 9.11,20.3 C16.79,20.3 20.96,13.85 20.96,8.27 C20.96,8.09 20.95,7.92 20.94,7.75 C21.75,7.16 22.45,6.42 23,5.89 Z" fill="currentColor"/>
</svg> 